# MagicaVoxel @ Ephtracy

# group
g Placa

# material
mtllib Placa.mtl
usemtl palette

# normals
vn -1 0 0
vn 1 0 0
vn 0 0 1
vn 0 0 -1
vn 0 -1 0
vn 0 1 0

# texcoords
vt 0.310547 0.5
vt 0.341797 0.5
vt 0.935547 0.5

# verts
v -6 21 -19
v -6 21 -20
v -6 27 -19
v -6 27 -20
v -4 27 -19
v -4 27 -20
v -4 32 -19
v -4 32 -20
v 4 27 -19
v 4 27 -20
v 4 32 -19
v 4 32 -20
v -3 27 -19
v -3 27 -20
v -3 32 -19
v -3 32 -20
v 5 27 -19
v 5 27 -20
v 5 32 -19
v 5 32 -20
v 7 21 -19
v 7 21 -20
v 7 27 -19
v 7 27 -20
v -6 21 -19
v -6 27 -19
v -5 22 -19
v -5 26 -19
v -4 27 -19
v -4 32 -19
v -3 27 -19
v -3 32 -19
v 4 27 -19
v 4 32 -19
v 5 27 -19
v 5 32 -19
v 6 22 -19
v 6 26 -19
v 7 21 -19
v 7 27 -19
v -6 21 -20
v -6 27 -20
v -5 22 -20
v -5 26 -20
v -4 27 -20
v -4 32 -20
v -3 27 -20
v -3 32 -20
v 4 27 -20
v 4 32 -20
v 5 27 -20
v 5 32 -20
v 6 22 -20
v 6 26 -20
v 7 21 -20
v 7 27 -20
v -6 21 -19
v 7 21 -19
v -6 21 -20
v 7 21 -20
v -6 27 -19
v -4 27 -19
v -3 27 -19
v 4 27 -19
v 5 27 -19
v 7 27 -19
v -6 27 -20
v -4 27 -20
v -3 27 -20
v 4 27 -20
v 5 27 -20
v 7 27 -20
v -4 32 -19
v -3 32 -19
v 4 32 -19
v 5 32 -19
v -4 32 -20
v -3 32 -20
v 4 32 -20
v 5 32 -20

# faces
f 3/1/1 2/1/1 1/1/1
f 4/1/1 2/1/1 3/1/1
f 7/3/1 6/3/1 5/3/1
f 8/3/1 6/3/1 7/3/1
f 11/3/1 10/3/1 9/3/1
f 12/3/1 10/3/1 11/3/1
f 13/3/2 14/3/2 15/3/2
f 15/3/2 14/3/2 16/3/2
f 17/3/2 18/3/2 19/3/2
f 19/3/2 18/3/2 20/3/2
f 21/1/2 22/1/2 23/1/2
f 23/1/2 22/1/2 24/1/2
f 27/1/3 26/1/3 25/1/3
f 28/1/3 26/1/3 27/1/3
f 29/1/3 26/1/3 28/1/3
f 31/1/3 29/1/3 28/1/3
f 31/3/3 30/3/3 29/3/3
f 32/3/3 30/3/3 31/3/3
f 33/1/3 31/1/3 28/1/3
f 35/1/3 33/1/3 28/1/3
f 35/3/3 34/3/3 33/3/3
f 36/3/3 34/3/3 35/3/3
f 37/1/3 27/1/3 25/1/3
f 37/2/3 28/2/3 27/2/3
f 38/1/3 35/1/3 28/1/3
f 38/2/3 28/2/3 37/2/3
f 39/1/3 37/1/3 25/1/3
f 39/1/3 38/1/3 37/1/3
f 40/1/3 35/1/3 38/1/3
f 40/1/3 38/1/3 39/1/3
f 41/1/4 42/1/4 43/1/4
f 43/1/4 42/1/4 44/1/4
f 44/1/4 42/1/4 45/1/4
f 44/1/4 45/1/4 47/1/4
f 45/3/4 46/3/4 47/3/4
f 47/3/4 46/3/4 48/3/4
f 44/1/4 47/1/4 49/1/4
f 44/1/4 49/1/4 51/1/4
f 49/3/4 50/3/4 51/3/4
f 51/3/4 50/3/4 52/3/4
f 41/1/4 43/1/4 53/1/4
f 43/2/4 44/2/4 53/2/4
f 44/1/4 51/1/4 54/1/4
f 53/2/4 44/2/4 54/2/4
f 41/1/4 53/1/4 55/1/4
f 53/1/4 54/1/4 55/1/4
f 54/1/4 51/1/4 56/1/4
f 55/1/4 54/1/4 56/1/4
f 59/1/5 58/1/5 57/1/5
f 60/1/5 58/1/5 59/1/5
f 61/1/6 62/1/6 67/1/6
f 67/1/6 62/1/6 68/1/6
f 63/1/6 64/1/6 69/1/6
f 69/1/6 64/1/6 70/1/6
f 65/1/6 66/1/6 71/1/6
f 71/1/6 66/1/6 72/1/6
f 73/3/6 74/3/6 77/3/6
f 77/3/6 74/3/6 78/3/6
f 75/3/6 76/3/6 79/3/6
f 79/3/6 76/3/6 80/3/6
